<mxfile host="Electron" agent="Mozilla/5.0 (X11; Linux x86_64) AppleWebKit/537.36 (KHTML, like Gecko) draw.io/24.7.8 Chrome/128.0.6613.36 Electron/32.0.1 Safari/537.36" version="24.7.8" pages="3">
  <diagram name="use-cases" id="GmEgcjwTJVxlPAKcq9Ka">
    <mxGraphModel dx="1058" dy="663" grid="1" gridSize="10" guides="1" tooltips="1" connect="1" arrows="1" fold="1" page="1" pageScale="1" pageWidth="1169" pageHeight="827" math="0" shadow="0">
      <root>
        <mxCell id="0" />
        <mxCell id="1" parent="0" />
        <mxCell id="SmWtMnaCZWOa3UiYu6g--2" value="Use Cases «Интернет-ресурс»" style="text;html=1;align=center;verticalAlign=middle;whiteSpace=wrap;rounded=0;fontSize=16;fontStyle=1" parent="1" vertex="1">
          <mxGeometry x="340" y="80" width="450" height="30" as="geometry" />
        </mxCell>
        <mxCell id="OGDxPvHGEIfQSNvsUjFW-1" value="Интернет-ресурс" style="rounded=0;whiteSpace=wrap;html=1;fontSize=19;fontStyle=1" parent="1" vertex="1">
          <mxGeometry x="710" y="170" width="210" height="360" as="geometry" />
        </mxCell>
        <mxCell id="OGDxPvHGEIfQSNvsUjFW-2" value="&lt;font style=&quot;font-size: 16px;&quot;&gt;&lt;b&gt;Продавец&lt;/b&gt;&lt;/font&gt;" style="swimlane;fontStyle=0;childLayout=stackLayout;horizontal=1;startSize=30;horizontalStack=0;resizeParent=1;resizeParentMax=0;resizeLast=0;collapsible=0;marginBottom=0;whiteSpace=wrap;html=1;" parent="1" vertex="1">
          <mxGeometry x="270" y="215" width="300" height="90" as="geometry" />
        </mxCell>
        <mxCell id="OGDxPvHGEIfQSNvsUjFW-3" value="Размещает контент" style="text;strokeColor=none;fillColor=none;align=left;verticalAlign=middle;spacingLeft=4;spacingRight=4;overflow=hidden;points=[[0,0.5],[1,0.5]];portConstraint=eastwest;rotatable=0;whiteSpace=wrap;html=1;" parent="OGDxPvHGEIfQSNvsUjFW-2" vertex="1">
          <mxGeometry y="30" width="300" height="30" as="geometry" />
        </mxCell>
        <mxCell id="OGDxPvHGEIfQSNvsUjFW-4" value="Устанавливает условия публикации (тариф, сроки)" style="text;strokeColor=none;fillColor=none;align=left;verticalAlign=middle;spacingLeft=4;spacingRight=4;overflow=hidden;points=[[0,0.5],[1,0.5]];portConstraint=eastwest;rotatable=0;whiteSpace=wrap;html=1;" parent="OGDxPvHGEIfQSNvsUjFW-2" vertex="1">
          <mxGeometry y="60" width="300" height="30" as="geometry" />
        </mxCell>
        <mxCell id="OGDxPvHGEIfQSNvsUjFW-6" value="&lt;font style=&quot;font-size: 16px;&quot;&gt;&lt;b&gt;Покупатель&lt;/b&gt;&lt;/font&gt;" style="swimlane;fontStyle=0;childLayout=stackLayout;horizontal=1;startSize=30;horizontalStack=0;resizeParent=1;resizeParentMax=0;resizeLast=0;collapsible=0;marginBottom=0;whiteSpace=wrap;html=1;" parent="1" vertex="1">
          <mxGeometry x="270" y="380" width="300" height="120" as="geometry" />
        </mxCell>
        <mxCell id="OGDxPvHGEIfQSNvsUjFW-7" value="Просматривает перечень контента" style="text;strokeColor=none;fillColor=none;align=left;verticalAlign=middle;spacingLeft=4;spacingRight=4;overflow=hidden;points=[[0,0.5],[1,0.5]];portConstraint=eastwest;rotatable=0;whiteSpace=wrap;html=1;" parent="OGDxPvHGEIfQSNvsUjFW-6" vertex="1">
          <mxGeometry y="30" width="300" height="30" as="geometry" />
        </mxCell>
        <mxCell id="OGDxPvHGEIfQSNvsUjFW-8" value="Выбирает контент и производит оплату" style="text;strokeColor=none;fillColor=none;align=left;verticalAlign=middle;spacingLeft=4;spacingRight=4;overflow=hidden;points=[[0,0.5],[1,0.5]];portConstraint=eastwest;rotatable=0;whiteSpace=wrap;html=1;" parent="OGDxPvHGEIfQSNvsUjFW-6" vertex="1">
          <mxGeometry y="60" width="300" height="30" as="geometry" />
        </mxCell>
        <mxCell id="OGDxPvHGEIfQSNvsUjFW-9" value="Просматривает контент" style="text;strokeColor=none;fillColor=none;align=left;verticalAlign=middle;spacingLeft=4;spacingRight=4;overflow=hidden;points=[[0,0.5],[1,0.5]];portConstraint=eastwest;rotatable=0;whiteSpace=wrap;html=1;" parent="OGDxPvHGEIfQSNvsUjFW-6" vertex="1">
          <mxGeometry y="90" width="300" height="30" as="geometry" />
        </mxCell>
        <mxCell id="OGDxPvHGEIfQSNvsUjFW-10" value="" style="endArrow=classic;html=1;rounded=0;entryX=0;entryY=0.25;entryDx=0;entryDy=0;exitX=1;exitY=0.5;exitDx=0;exitDy=0;" parent="1" source="OGDxPvHGEIfQSNvsUjFW-3" target="OGDxPvHGEIfQSNvsUjFW-1" edge="1">
          <mxGeometry width="50" height="50" relative="1" as="geometry">
            <mxPoint x="580" y="390" as="sourcePoint" />
            <mxPoint x="630" y="340" as="targetPoint" />
          </mxGeometry>
        </mxCell>
        <mxCell id="OGDxPvHGEIfQSNvsUjFW-11" value="" style="endArrow=classic;html=1;rounded=0;entryX=0;entryY=0.75;entryDx=0;entryDy=0;" parent="1" source="OGDxPvHGEIfQSNvsUjFW-6" target="OGDxPvHGEIfQSNvsUjFW-1" edge="1">
          <mxGeometry width="50" height="50" relative="1" as="geometry">
            <mxPoint x="580" y="265" as="sourcePoint" />
            <mxPoint x="720" y="270" as="targetPoint" />
          </mxGeometry>
        </mxCell>
      </root>
    </mxGraphModel>
  </diagram>
  <diagram name="use-case-1" id="2WGT0HC8cmgSZRSBb7_J">
    <mxGraphModel dx="1058" dy="663" grid="1" gridSize="10" guides="1" tooltips="1" connect="1" arrows="1" fold="1" page="1" pageScale="1" pageWidth="1169" pageHeight="827" math="0" shadow="0">
      <root>
        <mxCell id="Vt8EMj7qNgTEwwaWrOYZ-0" />
        <mxCell id="Vt8EMj7qNgTEwwaWrOYZ-1" parent="Vt8EMj7qNgTEwwaWrOYZ-0" />
        <mxCell id="Vt8EMj7qNgTEwwaWrOYZ-2" value="Продавец" style="shape=umlActor;verticalLabelPosition=bottom;verticalAlign=top;html=1;" parent="Vt8EMj7qNgTEwwaWrOYZ-1" vertex="1">
          <mxGeometry x="250" y="350" width="30" height="60" as="geometry" />
        </mxCell>
        <mxCell id="Vt8EMj7qNgTEwwaWrOYZ-3" value="Use Case «Продавец публикует контент»" style="text;html=1;align=center;verticalAlign=middle;whiteSpace=wrap;rounded=0;fontSize=16;fontStyle=1" parent="Vt8EMj7qNgTEwwaWrOYZ-1" vertex="1">
          <mxGeometry x="360" y="70" width="450" height="30" as="geometry" />
        </mxCell>
        <mxCell id="Vt8EMj7qNgTEwwaWrOYZ-4" value="Регистрация пользователя" style="ellipse;whiteSpace=wrap;html=1;" parent="Vt8EMj7qNgTEwwaWrOYZ-1" vertex="1">
          <mxGeometry x="544" y="210" width="140" height="70" as="geometry" />
        </mxCell>
        <mxCell id="Vt8EMj7qNgTEwwaWrOYZ-5" value="Регистрируется" style="html=1;verticalAlign=bottom;endArrow=block;curved=0;rounded=0;entryX=0;entryY=0.5;entryDx=0;entryDy=0;" parent="Vt8EMj7qNgTEwwaWrOYZ-1" source="Vt8EMj7qNgTEwwaWrOYZ-2" target="Vt8EMj7qNgTEwwaWrOYZ-4" edge="1">
          <mxGeometry width="80" relative="1" as="geometry">
            <mxPoint x="500" y="390" as="sourcePoint" />
            <mxPoint x="580" y="390" as="targetPoint" />
          </mxGeometry>
        </mxCell>
        <mxCell id="Vt8EMj7qNgTEwwaWrOYZ-6" value="Размещает контент" style="ellipse;whiteSpace=wrap;html=1;" parent="Vt8EMj7qNgTEwwaWrOYZ-1" vertex="1">
          <mxGeometry x="684" y="345" width="140" height="70" as="geometry" />
        </mxCell>
        <mxCell id="Vt8EMj7qNgTEwwaWrOYZ-7" value="Размещает контент" style="html=1;verticalAlign=bottom;endArrow=block;curved=0;rounded=0;entryX=0;entryY=0.5;entryDx=0;entryDy=0;" parent="Vt8EMj7qNgTEwwaWrOYZ-1" source="Vt8EMj7qNgTEwwaWrOYZ-2" target="Vt8EMj7qNgTEwwaWrOYZ-6" edge="1">
          <mxGeometry width="80" relative="1" as="geometry">
            <mxPoint x="340" y="299" as="sourcePoint" />
            <mxPoint x="710" y="285" as="targetPoint" />
          </mxGeometry>
        </mxCell>
        <mxCell id="7tfjhs39Uqu-SJ95aKHX-0" value="Устанавливает условия публикации контента" style="ellipse;whiteSpace=wrap;html=1;" parent="Vt8EMj7qNgTEwwaWrOYZ-1" vertex="1">
          <mxGeometry x="544" y="460" width="140" height="70" as="geometry" />
        </mxCell>
        <mxCell id="7tfjhs39Uqu-SJ95aKHX-1" value="Устанавливает условия" style="html=1;verticalAlign=bottom;endArrow=block;curved=0;rounded=0;entryX=0;entryY=0.5;entryDx=0;entryDy=0;" parent="Vt8EMj7qNgTEwwaWrOYZ-1" source="Vt8EMj7qNgTEwwaWrOYZ-2" target="7tfjhs39Uqu-SJ95aKHX-0" edge="1">
          <mxGeometry width="80" relative="1" as="geometry">
            <mxPoint x="330" y="332" as="sourcePoint" />
            <mxPoint x="720" y="385" as="targetPoint" />
          </mxGeometry>
        </mxCell>
        <mxCell id="19Lu-_1h758eQFBRAPuN-3" value="Регистрация,&lt;div&gt;аутентификация&lt;/div&gt;&lt;div&gt;авторизация&lt;/div&gt;" style="strokeWidth=2;html=1;shape=mxgraph.flowchart.annotation_1;align=left;pointerEvents=1;" parent="Vt8EMj7qNgTEwwaWrOYZ-1" vertex="1">
          <mxGeometry x="840" y="130" width="130" height="60" as="geometry" />
        </mxCell>
        <mxCell id="19Lu-_1h758eQFBRAPuN-5" value="" style="endArrow=none;dashed=1;html=1;rounded=0;entryX=0;entryY=0.5;entryDx=0;entryDy=0;entryPerimeter=0;" parent="Vt8EMj7qNgTEwwaWrOYZ-1" source="Vt8EMj7qNgTEwwaWrOYZ-4" target="19Lu-_1h758eQFBRAPuN-3" edge="1">
          <mxGeometry width="50" height="50" relative="1" as="geometry">
            <mxPoint x="730" y="200" as="sourcePoint" />
            <mxPoint x="830" y="320" as="targetPoint" />
          </mxGeometry>
        </mxCell>
        <mxCell id="19Lu-_1h758eQFBRAPuN-6" value="Хранение контента&lt;div&gt;&lt;span style=&quot;background-color: initial;&quot;&gt;Изменение, удаление&lt;/span&gt;&lt;br&gt;&lt;/div&gt;" style="strokeWidth=2;html=1;shape=mxgraph.flowchart.annotation_1;align=left;pointerEvents=1;" parent="Vt8EMj7qNgTEwwaWrOYZ-1" vertex="1">
          <mxGeometry x="910" y="270" width="130" height="60" as="geometry" />
        </mxCell>
        <mxCell id="19Lu-_1h758eQFBRAPuN-7" value="" style="endArrow=none;dashed=1;html=1;rounded=0;entryX=0;entryY=0.5;entryDx=0;entryDy=0;entryPerimeter=0;" parent="Vt8EMj7qNgTEwwaWrOYZ-1" source="Vt8EMj7qNgTEwwaWrOYZ-6" target="19Lu-_1h758eQFBRAPuN-6" edge="1">
          <mxGeometry width="50" height="50" relative="1" as="geometry">
            <mxPoint x="950" y="390" as="sourcePoint" />
            <mxPoint x="950" y="441" as="targetPoint" />
          </mxGeometry>
        </mxCell>
        <mxCell id="19Lu-_1h758eQFBRAPuN-8" value="Хранение условий&amp;nbsp;&lt;div&gt;публикации контента&lt;/div&gt;" style="strokeWidth=2;html=1;shape=mxgraph.flowchart.annotation_1;align=left;pointerEvents=1;" parent="Vt8EMj7qNgTEwwaWrOYZ-1" vertex="1">
          <mxGeometry x="840" y="500" width="130" height="60" as="geometry" />
        </mxCell>
        <mxCell id="19Lu-_1h758eQFBRAPuN-9" value="" style="endArrow=none;dashed=1;html=1;rounded=0;entryX=0;entryY=0.5;entryDx=0;entryDy=0;entryPerimeter=0;" parent="Vt8EMj7qNgTEwwaWrOYZ-1" source="7tfjhs39Uqu-SJ95aKHX-0" target="19Lu-_1h758eQFBRAPuN-8" edge="1">
          <mxGeometry width="50" height="50" relative="1" as="geometry">
            <mxPoint x="590.0030856201656" y="563.7188079556747" as="sourcePoint" />
            <mxPoint x="783.55" y="720" as="targetPoint" />
          </mxGeometry>
        </mxCell>
      </root>
    </mxGraphModel>
  </diagram>
  <diagram name="use-case-2" id="v8nw64sGFWHwEgFcH8pK">
    <mxGraphModel dx="1058" dy="663" grid="1" gridSize="10" guides="1" tooltips="1" connect="1" arrows="1" fold="1" page="1" pageScale="1" pageWidth="1169" pageHeight="827" math="0" shadow="0">
      <root>
        <mxCell id="hZVybmfz3eJDpRVipqqV-0" />
        <mxCell id="hZVybmfz3eJDpRVipqqV-1" parent="hZVybmfz3eJDpRVipqqV-0" />
        <mxCell id="hZVybmfz3eJDpRVipqqV-2" value="Покупатель" style="shape=umlActor;verticalLabelPosition=bottom;verticalAlign=top;html=1;" parent="hZVybmfz3eJDpRVipqqV-1" vertex="1">
          <mxGeometry x="260" y="330" width="30" height="60" as="geometry" />
        </mxCell>
        <mxCell id="hZVybmfz3eJDpRVipqqV-3" value="Use Case «Покупатель получает контент»" style="text;html=1;align=center;verticalAlign=middle;whiteSpace=wrap;rounded=0;fontSize=16;fontStyle=1" parent="hZVybmfz3eJDpRVipqqV-1" vertex="1">
          <mxGeometry x="370" y="60" width="450" height="30" as="geometry" />
        </mxCell>
        <mxCell id="hZVybmfz3eJDpRVipqqV-4" value="Регистрация пользователя" style="ellipse;whiteSpace=wrap;html=1;" parent="hZVybmfz3eJDpRVipqqV-1" vertex="1">
          <mxGeometry x="554" y="190" width="140" height="70" as="geometry" />
        </mxCell>
        <mxCell id="hZVybmfz3eJDpRVipqqV-5" value="Регистрируется" style="html=1;verticalAlign=bottom;endArrow=block;curved=0;rounded=0;entryX=0;entryY=0.5;entryDx=0;entryDy=0;" parent="hZVybmfz3eJDpRVipqqV-1" source="hZVybmfz3eJDpRVipqqV-2" target="hZVybmfz3eJDpRVipqqV-4" edge="1">
          <mxGeometry width="80" relative="1" as="geometry">
            <mxPoint x="510" y="370" as="sourcePoint" />
            <mxPoint x="590" y="370" as="targetPoint" />
          </mxGeometry>
        </mxCell>
        <mxCell id="hZVybmfz3eJDpRVipqqV-6" value="Просмотрт перечня контента" style="ellipse;whiteSpace=wrap;html=1;" parent="hZVybmfz3eJDpRVipqqV-1" vertex="1">
          <mxGeometry x="710" y="260" width="140" height="70" as="geometry" />
        </mxCell>
        <mxCell id="hZVybmfz3eJDpRVipqqV-7" value="Просматривает перечень" style="html=1;verticalAlign=bottom;endArrow=block;curved=0;rounded=0;entryX=0;entryY=0.5;entryDx=0;entryDy=0;" parent="hZVybmfz3eJDpRVipqqV-1" source="hZVybmfz3eJDpRVipqqV-2" target="hZVybmfz3eJDpRVipqqV-6" edge="1">
          <mxGeometry x="0.2839" y="-3" width="80" relative="1" as="geometry">
            <mxPoint x="350" y="279" as="sourcePoint" />
            <mxPoint x="720" y="265" as="targetPoint" />
            <mxPoint as="offset" />
          </mxGeometry>
        </mxCell>
        <mxCell id="H5uatKflta_pHC8htm9M-0" value="Оплата доступа к контенту" style="ellipse;whiteSpace=wrap;html=1;" parent="hZVybmfz3eJDpRVipqqV-1" vertex="1">
          <mxGeometry x="710" y="380" width="140" height="70" as="geometry" />
        </mxCell>
        <mxCell id="9trQvxaMVQiYKKAE1lvN-0" value="Просмотр контента" style="ellipse;whiteSpace=wrap;html=1;" parent="hZVybmfz3eJDpRVipqqV-1" vertex="1">
          <mxGeometry x="554" y="450" width="140" height="70" as="geometry" />
        </mxCell>
        <mxCell id="9trQvxaMVQiYKKAE1lvN-1" value="Оплачивает доступ к контенту" style="html=1;verticalAlign=bottom;endArrow=block;curved=0;rounded=0;entryX=0;entryY=0.5;entryDx=0;entryDy=0;" parent="hZVybmfz3eJDpRVipqqV-1" source="hZVybmfz3eJDpRVipqqV-2" target="H5uatKflta_pHC8htm9M-0" edge="1">
          <mxGeometry width="80" relative="1" as="geometry">
            <mxPoint x="300" y="368" as="sourcePoint" />
            <mxPoint x="720" y="305" as="targetPoint" />
          </mxGeometry>
        </mxCell>
        <mxCell id="9trQvxaMVQiYKKAE1lvN-2" value="Просматривает контент" style="html=1;verticalAlign=bottom;endArrow=block;curved=0;rounded=0;entryX=0;entryY=0.5;entryDx=0;entryDy=0;" parent="hZVybmfz3eJDpRVipqqV-1" source="hZVybmfz3eJDpRVipqqV-2" target="9trQvxaMVQiYKKAE1lvN-0" edge="1">
          <mxGeometry width="80" relative="1" as="geometry">
            <mxPoint x="310" y="378" as="sourcePoint" />
            <mxPoint x="730" y="315" as="targetPoint" />
          </mxGeometry>
        </mxCell>
        <mxCell id="0kVDLmhEa-IoLSqhnbFK-0" value="Регистрация,&lt;div&gt;аутентификация&lt;/div&gt;&lt;div&gt;авторизация&lt;/div&gt;" style="strokeWidth=2;html=1;shape=mxgraph.flowchart.annotation_1;align=left;pointerEvents=1;" vertex="1" parent="hZVybmfz3eJDpRVipqqV-1">
          <mxGeometry x="860.0000000000001" y="120" width="130" height="60" as="geometry" />
        </mxCell>
        <mxCell id="0kVDLmhEa-IoLSqhnbFK-1" value="" style="endArrow=none;dashed=1;html=1;rounded=0;entryX=0;entryY=0.5;entryDx=0;entryDy=0;entryPerimeter=0;exitX=0.971;exitY=0.286;exitDx=0;exitDy=0;exitPerimeter=0;" edge="1" parent="hZVybmfz3eJDpRVipqqV-1" target="0kVDLmhEa-IoLSqhnbFK-0" source="hZVybmfz3eJDpRVipqqV-4">
          <mxGeometry width="50" height="50" relative="1" as="geometry">
            <mxPoint x="760" y="200" as="sourcePoint" />
            <mxPoint x="881.5600000000001" y="270" as="targetPoint" />
          </mxGeometry>
        </mxCell>
        <mxCell id="0kVDLmhEa-IoLSqhnbFK-2" value="API для&amp;nbsp;&lt;div&gt;получения&amp;nbsp;&lt;/div&gt;&lt;div&gt;перечня контента&lt;/div&gt;" style="strokeWidth=2;html=1;shape=mxgraph.flowchart.annotation_1;align=left;pointerEvents=1;" vertex="1" parent="hZVybmfz3eJDpRVipqqV-1">
          <mxGeometry x="960" y="240" width="130" height="60" as="geometry" />
        </mxCell>
        <mxCell id="0kVDLmhEa-IoLSqhnbFK-3" value="" style="endArrow=none;dashed=1;html=1;rounded=0;entryX=0;entryY=0.5;entryDx=0;entryDy=0;entryPerimeter=0;" edge="1" parent="hZVybmfz3eJDpRVipqqV-1" target="0kVDLmhEa-IoLSqhnbFK-2" source="hZVybmfz3eJDpRVipqqV-6">
          <mxGeometry width="50" height="50" relative="1" as="geometry">
            <mxPoint x="680" y="234" as="sourcePoint" />
            <mxPoint x="840" y="330" as="targetPoint" />
          </mxGeometry>
        </mxCell>
        <mxCell id="xTP7ySdg1BMbzLNQibSq-0" value="Прием оплаты&lt;div&gt;обновление&amp;nbsp;&lt;/div&gt;&lt;div&gt;ролевого доступа&lt;/div&gt;" style="strokeWidth=2;html=1;shape=mxgraph.flowchart.annotation_1;align=left;pointerEvents=1;" vertex="1" parent="hZVybmfz3eJDpRVipqqV-1">
          <mxGeometry x="960" y="390" width="130" height="60" as="geometry" />
        </mxCell>
        <mxCell id="xTP7ySdg1BMbzLNQibSq-1" value="" style="endArrow=none;dashed=1;html=1;rounded=0;entryX=0;entryY=0.5;entryDx=0;entryDy=0;entryPerimeter=0;" edge="1" parent="hZVybmfz3eJDpRVipqqV-1" target="xTP7ySdg1BMbzLNQibSq-0" source="H5uatKflta_pHC8htm9M-0">
          <mxGeometry width="50" height="50" relative="1" as="geometry">
            <mxPoint x="870" y="420" as="sourcePoint" />
            <mxPoint x="1007.43" y="544" as="targetPoint" />
          </mxGeometry>
        </mxCell>
        <mxCell id="xTP7ySdg1BMbzLNQibSq-2" value="Доступ к контенту&lt;div&gt;в соответствии с&lt;/div&gt;&lt;div&gt;ролевой&amp;nbsp;&lt;span style=&quot;background-color: initial;&quot;&gt;моделью&lt;/span&gt;&lt;/div&gt;" style="strokeWidth=2;html=1;shape=mxgraph.flowchart.annotation_1;align=left;pointerEvents=1;" vertex="1" parent="hZVybmfz3eJDpRVipqqV-1">
          <mxGeometry x="860" y="520" width="130" height="60" as="geometry" />
        </mxCell>
        <mxCell id="xTP7ySdg1BMbzLNQibSq-3" value="" style="endArrow=none;dashed=1;html=1;rounded=0;entryX=0;entryY=0.5;entryDx=0;entryDy=0;entryPerimeter=0;" edge="1" parent="hZVybmfz3eJDpRVipqqV-1" target="xTP7ySdg1BMbzLNQibSq-2" source="9trQvxaMVQiYKKAE1lvN-0">
          <mxGeometry width="50" height="50" relative="1" as="geometry">
            <mxPoint x="700" y="574" as="sourcePoint" />
            <mxPoint x="860" y="670" as="targetPoint" />
          </mxGeometry>
        </mxCell>
      </root>
    </mxGraphModel>
  </diagram>
</mxfile>
